<?xml version="1.0" encoding="iso-8859-1"?>
<!-- Generator: Adobe Illustrator 19.0.0, SVG Export Plug-In . SVG Version: 6.00 Build 0)  -->
<svg version="1.1" id="Capa_1" xmlns="http://www.w3.org/2000/svg" xmlns:xlink="http://www.w3.org/1999/xlink" x="0px" y="0px"
	 viewBox="0 0 512 512" style="enable-background:new 0 0 512 512;" xml:space="preserve">
<g fill="#ffffff">
	<g>
		<path d="M381,60h-53.017l-10.941-48.313C315.494,4.852,309.42,0,302.412,0h-92.824c-7.008,0-13.082,4.852-14.63,11.687L184.017,60
			H131c-8.284,0-15,6.716-15,15v422c0,8.284,6.716,15,15,15h250c8.284,0,15-6.716,15-15V75C396,66.716,389.284,60,381,60z
			 M221.57,30h68.859l6.794,30h-82.447L221.57,30z M366,482H146V90c5.434,0,210.262,0,220,0V482z"/>
	</g>
</g>
<g fill="#ffffff">
	<g>
		<path d="M303.307,278.265c-2.713-4.509-7.591-7.265-12.853-7.265h-43.98l22.779-42.975c3.88-7.319,1.092-16.398-6.228-20.278
			c-7.32-3.879-16.398-1.092-20.278,6.229l-34.454,65c-2.465,4.649-2.313,10.25,0.4,14.759c2.713,4.509,7.591,7.265,12.853,7.265
			h43.98l-22.779,42.975c-3.88,7.319-1.092,16.398,6.228,20.278c7.327,3.882,16.402,1.085,20.278-6.229l34.454-65
			C306.172,288.375,306.02,282.774,303.307,278.265z"/>
	</g>
</g>
</svg>
