<!DOCTYPE svg PUBLIC "-//W3C//DTD SVG 20010904//EN" "http://www.w3.org/TR/2001/REC-SVG-20010904/DTD/svg10.dtd">
<svg version="1.0" xmlns="http://www.w3.org/2000/svg" width="91px" height="95px" viewBox="0 0 910 950" preserveAspectRatio="xMidYMid meet">
<g id="layer101" fill="#ffffff" stroke="none">
 <path d="M0 475 l0 -475 455 0 455 0 0 475 0 475 -455 0 -455 0 0 -475z m880 0 l0 -445 -425 0 -425 0 0 445 0 445 425 0 425 0 0 -445z"/>
 <path d="M200 540 l0 -270 90 0 90 0 0 -35 c0 -28 11 -49 48 -95 26 -32 49 -59 52 -59 3 -1 26 26 53 58 l47 59 0 111 0 111 90 0 90 0 0 195 0 195 -280 0 -280 0 0 -270z m120 145 c0 -31 -3 -35 -25 -35 -22 0 -25 4 -25 35 0 31 3 35 25 35 22 0 25 -4 25 -35z m190 0 c0 -32 -2 -35 -30 -35 -28 0 -30 3 -30 35 0 32 2 35 30 35 28 0 30 -3 30 -35z m188 3 c-2 -28 -8 -34 -30 -36 -26 -3 -28 -1 -28 32 0 33 2 36 31 36 28 0 30 -2 27 -32z m-378 -153 c0 -31 -3 -35 -25 -35 -22 0 -25 4 -25 35 0 31 3 35 25 35 22 0 25 -4 25 -35z m190 0 c0 -32 -2 -35 -30 -35 -28 0 -30 3 -30 35 0 32 2 35 30 35 28 0 30 -3 30 -35z m190 0 c0 -32 -2 -35 -30 -35 -28 0 -30 3 -30 35 0 32 2 35 30 35 28 0 30 -3 30 -35z m-380 -150 c0 -31 -3 -35 -25 -35 -22 0 -25 4 -25 35 0 31 3 35 25 35 22 0 25 -4 25 -35z m190 0 c0 -32 -2 -35 -30 -35 -28 0 -30 3 -30 35 0 32 2 35 30 35 28 0 30 -3 30 -35z m0 -150 c0 -32 -2 -35 -30 -35 -28 0 -30 3 -30 35 0 32 2 35 30 35 28 0 30 -3 30 -35z"/>
 </g>

</svg>