<svg width="1172" height="902" viewBox="0 0 1172 902" fill="none" xmlns="http://www.w3.org/2000/svg">
<path d="M437.383 769.201L299.825 839.448L161.813 770.188L161.363 631.767L298.92 561.52L436.933 630.779L437.383 769.201Z" stroke="#8E8484" stroke-opacity="0.14" stroke-width="10"/>
<path d="M303.355 563.767L165.797 634.013L27.7848 564.754L27.3342 426.332L164.892 356.086L302.904 425.345L303.355 563.767Z" stroke="#8E8484" stroke-opacity="0.14" stroke-width="10"/>
<path d="M853.536 561.768L715.978 632.014L577.966 562.755L577.516 424.333L715.074 354.086L853.086 423.346L853.536 561.768Z" stroke="#8E8484" stroke-opacity="0.14" stroke-width="10"/>
<path d="M1129.04 560.781L991.482 631.027L853.47 561.768L853.019 423.346L990.577 353.1L1128.59 422.359L1129.04 560.781Z" stroke="#8E8484" stroke-opacity="0.14" stroke-width="10"/>
<path d="M578.859 562.78L441.301 633.026L303.289 563.767L302.838 425.345L440.396 355.099L578.408 424.358L578.859 562.78Z" stroke="#8E8484" stroke-opacity="0.14" stroke-width="10"/>
<path d="M711.403 768.013L573.845 838.26L435.833 769L435.382 630.579L572.94 560.332L710.952 629.592L711.403 768.013Z" stroke="#8E8484" stroke-opacity="0.14" stroke-width="10"/>
<path fill-rule="evenodd" clip-rule="evenodd" d="M1167.54 678.447L1167.41 671.653L1032.45 604.392L1032.6 612.215L1166.56 678.981L1167.54 678.447ZM1167.74 689.732L1166.77 690.266L1157.67 685.73L1160.04 815.158L1028.63 887.283L894.658 820.516L892.14 683.265L1022.59 611.675L1022.38 600.39L882.031 677.415L884.771 826.77L1028.83 898.567L1170.15 821.009L1167.74 689.732Z" fill="#8E8484"/>
<path fill-rule="evenodd" clip-rule="evenodd" d="M158.46 365.49L158.534 372.285L292.996 440.633L292.91 432.81L159.436 364.964L158.46 365.49ZM158.335 354.204L159.312 353.678L168.381 358.288L166.956 228.844L298.9 157.782L432.374 225.628L433.885 362.896L302.917 433.431L303.041 444.717L443.951 368.828L442.306 219.454L298.776 146.496L156.89 222.912L158.335 354.204Z" fill="#8E8484"/>
<path fill-rule="evenodd" clip-rule="evenodd" d="M451.078 225.745L583.796 156.287L716.514 225.745V228.312L583.85 158.882L451.132 228.34V363.05L451.078 363.022V225.745ZM441.132 369.103V371.67L583.85 446.361L726.567 371.67V222.287L726.514 222.258V369.075L583.796 443.767L441.132 369.103Z" fill="#8E8484"/>
<line y1="-5" x2="169.001" y2="-5" transform="matrix(0.0301198 0.999546 -0.999451 0.0331405 561.104 1)" stroke="#8E8484" stroke-opacity="0.14" stroke-width="10"/>
<ellipse cx="1013.31" cy="611.712" rx="26.2767" ry="32.5759" fill="#8E8484"/>
</svg>
