<svg width="1290" height="2288" viewBox="0 0 1290 2288" fill="none" xmlns="http://www.w3.org/2000/svg">
<path d="M762.383 768.866L624.825 839.112L486.813 769.853L486.363 631.431L623.92 561.185L761.933 630.444L762.383 768.866Z" stroke="#8E8484" stroke-opacity="0.33" stroke-width="10"/>
<path d="M628.355 563.431L490.797 633.677L352.785 564.418L352.334 425.996L489.892 355.75L627.904 425.009L628.355 563.431Z" stroke="#8E8484" stroke-opacity="0.33" stroke-width="10"/>
<path d="M1178.54 561.432L1040.98 631.678L902.966 562.419L902.516 423.997L1040.07 353.751L1178.09 423.01L1178.54 561.432Z" stroke="#8E8484" stroke-opacity="0.33" stroke-width="10"/>
<path d="M1454.04 560.445L1316.48 630.691L1178.47 561.432L1178.02 423.01L1315.58 352.764L1453.59 422.023L1454.04 560.445Z" stroke="#8E8484" stroke-opacity="0.33" stroke-width="10"/>
<path d="M903.859 562.444L766.301 632.69L628.289 563.431L627.838 425.009L765.396 354.763L903.408 424.022L903.859 562.444Z" stroke="#8E8484" stroke-opacity="0.33" stroke-width="10"/>
<path d="M1036.4 767.678L898.845 837.924L760.833 768.665L760.382 630.243L897.94 559.997L1035.95 629.256L1036.4 767.678Z" stroke="#8E8484" stroke-opacity="0.33" stroke-width="10"/>
<path fill-rule="evenodd" clip-rule="evenodd" d="M1492.54 678.111L1492.41 671.317L1357.45 604.056L1357.6 611.879L1491.56 678.645L1492.54 678.111ZM1492.74 689.396L1491.77 689.93L1482.67 685.394L1485.04 814.822L1353.63 886.947L1219.66 820.18L1217.14 682.929L1347.59 611.339L1347.38 600.054L1207.03 677.079L1209.77 826.435L1353.83 898.231L1495.15 820.673L1492.74 689.396Z" fill="#8E8484"/>
<path fill-rule="evenodd" clip-rule="evenodd" d="M483.46 365.154L483.534 371.949L617.996 440.297L617.91 432.474L484.436 364.628L483.46 365.154ZM483.335 353.868L484.312 353.342L493.381 357.952L491.956 228.508L623.9 157.447L757.374 225.293L758.885 362.56L627.917 433.095L628.041 444.381L768.951 368.492L767.306 219.119L623.776 146.161L481.89 222.576L483.335 353.868Z" fill="#8E8484"/>
<path fill-rule="evenodd" clip-rule="evenodd" d="M1051.57 228.746V221.951L917.867 151.978V159.802L1050.58 229.26L1051.57 228.746ZM1051.57 240.033L1050.58 240.547L1041.57 235.828V365.281L908.85 434.739L776.132 365.281V228.004L907.867 159.06V147.773L766.132 221.951V371.334L908.85 446.026L1051.57 371.334V240.033Z" fill="#8E8484"/>
<line y1="-5" x2="169.001" y2="-5" transform="matrix(0.0301198 0.999546 -0.999451 0.0331405 886.104 0.664185)" stroke="#8E8484" stroke-opacity="0.33" stroke-width="10"/>
<path d="M462.383 1169.2L324.825 1239.45L186.813 1170.19L186.363 1031.77L323.92 961.52L461.933 1030.78L462.383 1169.2Z" stroke="#8E8484" stroke-opacity="0.33" stroke-width="10"/>
<path d="M328.355 963.767L190.797 1034.01L52.7848 964.754L52.3342 826.332L189.892 756.086L327.904 825.345L328.355 963.767Z" stroke="#8E8484" stroke-opacity="0.33" stroke-width="10"/>
<path d="M878.536 961.768L740.978 1032.01L602.966 962.755L602.516 824.333L740.074 754.087L878.086 823.346L878.536 961.768Z" stroke="#8E8484" stroke-opacity="0.33" stroke-width="10"/>
<path d="M1154.04 960.781L1016.48 1031.03L878.47 961.768L878.019 823.346L1015.58 753.1L1153.59 822.359L1154.04 960.781Z" stroke="#8E8484" stroke-opacity="0.33" stroke-width="10"/>
<path d="M603.859 962.78L466.301 1033.03L328.289 963.767L327.838 825.345L465.396 755.099L603.408 824.358L603.859 962.78Z" stroke="#8E8484" stroke-opacity="0.33" stroke-width="10"/>
<path d="M736.403 1168.01L598.845 1238.26L460.833 1169L460.382 1030.58L597.94 960.333L735.952 1029.59L736.403 1168.01Z" stroke="#8E8484" stroke-opacity="0.33" stroke-width="10"/>
<path fill-rule="evenodd" clip-rule="evenodd" d="M1192.54 1078.45L1192.41 1071.65L1057.45 1004.39L1057.6 1012.21L1191.56 1078.98L1192.54 1078.45ZM1192.74 1089.73L1191.77 1090.27L1182.67 1085.73L1185.04 1215.16L1053.63 1287.28L919.658 1220.52L917.14 1083.27L1047.59 1011.67L1047.38 1000.39L907.031 1077.41L909.771 1226.77L1053.83 1298.57L1195.15 1221.01L1192.74 1089.73Z" fill="#8E8484"/>
<path fill-rule="evenodd" clip-rule="evenodd" d="M183.46 765.49L183.534 772.285L317.996 840.633L317.91 832.81L184.436 764.964L183.46 765.49ZM183.335 754.204L184.312 753.678L193.381 758.288L191.956 628.844L323.9 557.782L457.374 625.628L458.885 762.896L327.917 833.431L328.041 844.717L468.951 768.828L467.306 619.454L323.776 546.496L181.89 622.912L183.335 754.204Z" fill="#8E8484"/>
<path fill-rule="evenodd" clip-rule="evenodd" d="M751.567 629.082V622.286L617.867 552.314V560.138L750.585 629.596L751.567 629.082ZM751.567 640.368L750.585 640.883L741.567 636.164V765.617L608.85 835.075L476.132 765.617V628.34L607.867 559.396V548.109L466.132 622.286V771.67L608.85 846.361L751.567 771.67V640.368Z" fill="#8E8484"/>
<line y1="-5" x2="169.001" y2="-5" transform="matrix(0.0301198 0.999546 -0.999451 0.0331405 586.104 401)" stroke="#8E8484" stroke-opacity="0.33" stroke-width="10"/>
<ellipse cx="1038.31" cy="1011.71" rx="26.2767" ry="32.5759" fill="#8E8484"/>
<path d="M765.032 1728.85L755.273 1882.99L625.296 1966.36L506.012 1896.13L515.772 1741.99L645.749 1658.62L765.032 1728.85Z" stroke="#8E8484" stroke-opacity="0.29" stroke-width="10"/>
<path d="M519.966 1739.32L510.207 1893.46L380.23 1976.83L260.947 1906.6L270.706 1752.46L400.683 1669.09L519.966 1739.32Z" stroke="#8E8484" stroke-opacity="0.29" stroke-width="10"/>
<path d="M798.928 1265.1L789.169 1419.25L659.192 1502.61L539.908 1432.38L549.668 1278.24L679.645 1194.87L798.928 1265.1Z" stroke="#8E8484" stroke-opacity="0.29" stroke-width="10"/>
<path d="M938.631 1027.64L928.871 1181.79L798.895 1265.16L679.611 1194.93L689.371 1040.78L819.347 957.41L938.631 1027.64Z" stroke="#8E8484" stroke-opacity="0.29" stroke-width="10"/>
<path d="M659.669 1501.86L649.91 1656.01L519.933 1739.37L400.649 1669.14L410.409 1515L540.386 1431.63L659.669 1501.86Z" stroke="#8E8484" stroke-opacity="0.29" stroke-width="10"/>
<path d="M903.805 1492.56L894.045 1646.71L764.068 1730.08L644.785 1659.85L654.544 1505.7L784.521 1422.33L903.805 1492.56Z" stroke="#8E8484" stroke-opacity="0.29" stroke-width="10"/>
<ellipse cx="508.942" cy="1893.94" rx="26.2768" ry="32.5758" transform="rotate(-59.3255 508.942 1893.94)" fill="#8E8484"/>
<ellipse cx="903.845" cy="1496.66" rx="26.2768" ry="32.5758" transform="rotate(-59.3255 903.845 1496.66)" fill="#8E8484"/>
<path fill-rule="evenodd" clip-rule="evenodd" d="M275.511 1762.79L281.394 1766.19L408.776 1685.41L402.003 1681.49L275.557 1761.68L275.511 1762.79ZM265.741 1757.13L265.787 1756.03L274.379 1750.58L162.319 1685.77L168.514 1536.03L294.96 1455.85L413.791 1524.57L407.643 1673.2L417.413 1678.85L424.028 1518.94L294.717 1444.15L158.744 1530.38L152.082 1691.4L265.741 1757.13Z" fill="#8E8484"/>
<line y1="-5" x2="169.001" y2="-5" transform="matrix(0.922107 0.386935 -0.384146 0.923272 388.558 1215.71)" stroke="#8E8484" stroke-opacity="0.29" stroke-width="10"/>
<ellipse cx="381.147" cy="1210.06" rx="26.2767" ry="32.5759" transform="rotate(-65.5101 381.147 1210.06)" fill="#8E8484"/>
<ellipse cx="924.854" cy="1170.3" rx="26.2767" ry="32.5759" transform="rotate(-59.3254 924.854 1170.3)" fill="#8E8484"/>
<path d="M1084.03 1872.39L1074.27 2026.54L944.296 2109.91L825.012 2039.68L834.772 1885.53L964.749 1802.16L1084.03 1872.39Z" stroke="#8E8484" stroke-opacity="0.29" stroke-width="10"/>
<path d="M838.966 1882.86L829.207 2037.01L699.23 2120.38L579.947 2050.15L589.706 1896L719.683 1812.63L838.966 1882.86Z" stroke="#8E8484" stroke-opacity="0.29" stroke-width="10"/>
<path d="M1117.93 1408.65L1108.17 1562.79L978.192 1646.16L858.908 1575.93L868.668 1421.78L998.645 1338.42L1117.93 1408.65Z" stroke="#8E8484" stroke-opacity="0.29" stroke-width="10"/>
<path d="M1257.63 1171.19L1247.87 1325.34L1117.89 1408.7L998.611 1338.47L1008.37 1184.33L1138.35 1100.96L1257.63 1171.19Z" stroke="#8E8484" stroke-opacity="0.29" stroke-width="10"/>
<path d="M978.669 1645.41L968.91 1799.55L838.933 1882.92L719.649 1812.69L729.409 1658.54L859.386 1575.18L978.669 1645.41Z" stroke="#8E8484" stroke-opacity="0.29" stroke-width="10"/>
<path d="M1222.8 1636.11L1213.05 1790.26L1083.07 1873.63L963.785 1803.4L973.544 1649.25L1103.52 1565.88L1222.8 1636.11Z" stroke="#8E8484" stroke-opacity="0.29" stroke-width="10"/>
<ellipse cx="827.942" cy="2037.48" rx="26.2768" ry="32.5758" transform="rotate(-59.3255 827.942 2037.48)" fill="#8E8484"/>
<ellipse cx="1222.85" cy="1640.21" rx="26.2768" ry="32.5758" transform="rotate(-59.3255 1222.85 1640.21)" fill="#8E8484"/>
<path fill-rule="evenodd" clip-rule="evenodd" d="M594.511 1906.33L600.394 1909.73L727.776 1828.96L721.003 1825.04L594.557 1905.22L594.511 1906.33ZM584.741 1900.68L584.787 1899.57L593.379 1894.13L481.319 1829.31L487.514 1679.58L613.96 1599.39L732.791 1668.12L726.643 1816.75L736.413 1822.4L743.028 1662.49L613.717 1587.7L477.744 1673.93L471.082 1834.94L584.741 1900.68Z" fill="#8E8484"/>
<line y1="-5" x2="169.001" y2="-5" transform="matrix(0.922107 0.386935 -0.384146 0.923272 707.558 1359.26)" stroke="#8E8484" stroke-opacity="0.29" stroke-width="10"/>
<ellipse cx="700.147" cy="1353.61" rx="26.2767" ry="32.5759" transform="rotate(-65.5101 700.147 1353.61)" fill="#8E8484"/>
<ellipse cx="1243.85" cy="1313.85" rx="26.2767" ry="32.5759" transform="rotate(-59.3254 1243.85 1313.85)" fill="#8E8484"/>
</svg>
